<svg width="32" height="32" viewBox="0 0 32 32" fill="none" xmlns="http://www.w3.org/2000/svg">
  <!-- 背景圆形 -->
  <circle cx="16" cy="16" r="16" fill="#2563eb"/>
  
  <!-- 翻译符号 - 左侧语言块 -->
  <rect x="6" y="10" width="8" height="6" rx="1" fill="white" opacity="0.9"/>
  <rect x="7" y="11" width="6" height="1" fill="#2563eb"/>
  <rect x="7" y="13" width="4" height="1" fill="#2563eb"/>
  <rect x="7" y="15" width="5" height="1" fill="#2563eb"/>
  
  <!-- 翻译箭头 -->
  <path d="M15 13 L17 13 L16 11.5 Z" fill="white"/>
  <path d="M15 13 L17 13 L16 14.5 Z" fill="white"/>
  
  <!-- 翻译符号 - 右侧语言块 -->
  <rect x="18" y="10" width="8" height="6" rx="1" fill="white" opacity="0.9"/>
  <rect x="19" y="11" width="6" height="1" fill="#2563eb"/>
  <rect x="19" y="13" width="5" height="1" fill="#2563eb"/>
  <rect x="19" y="15" width="4" height="1" fill="#2563eb"/>
  
  <!-- 底部装饰线 -->
  <rect x="8" y="20" width="16" height="2" rx="1" fill="white" opacity="0.7"/>
  <rect x="10" y="23" width="12" height="1" rx="0.5" fill="white" opacity="0.5"/>
</svg>
